PathFileType	4	(X/Y/Z)	D:\TRACE\v60_Jaco2_6-2-23\v60_baseline_2-platform.trc
DataRate	CameraRate	NumFrames	NumMarkers	Units	OrigDataRate	OrigDataStartFrame	OrigNumFrames
100.00	100.00	      37	5	mm	100.00	3652	      7303
Frame#	Time	Left_Front			Right_Front			Left_Aft			Right_Aft			Post			
		X1	Y1	Z1	X2	Y2	Z2	X3	Y3	Z3	X4	Y4	Z4	X5	Y5	Z5	

3652	36.510	-800.56055	8.78201	-638.78204	769.30707	10.21510	-644.47064	-708.41498	7.70601	496.18152	733.23462	6.85461	505.54926	-14.14274	1308.22058	-961.95551	
3653	36.520	-800.56683	8.70382	-638.86804	769.32361	10.19100	-644.41772	-708.41168	7.65831	496.11746	733.19751	6.79804	505.60248	-14.07377	1308.09717	-962.02258	
3654	36.530	-800.64514	8.82239	-638.76825	769.25415	10.18810	-644.39478	-708.41357	7.65024	496.16165	732.79193	6.82204	505.75418	-14.15066	1308.09424	-961.98383	
3655	36.540	-800.66028	8.86872	-638.73853	769.33264	10.17229	-644.41815	-708.40198	7.69806	496.13132	733.15240	6.78674	505.60175	-14.11830	1308.08875	-961.94495	
3656	36.550	-800.64069	8.83410	-638.73364	769.32269	10.20721	-644.38831	-708.43195	7.74411	496.11981	733.23370	6.87034	505.56415	-14.08740	1308.12366	-961.98517	
3657	36.560	-800.62781	8.76875	-638.74500	769.35675	10.21225	-644.42273	-708.46594	7.80228	496.09531	733.22473	6.86199	505.55643	-14.13626	1308.16650	-961.92523	
3658	36.570	-800.57452	8.71225	-638.84808	769.34216	10.22687	-644.41553	-708.48004	7.78132	496.12921	733.21167	6.84653	505.58505	-14.05220	1308.09143	-961.86108	
3659	36.580	-800.60602	8.75371	-638.75519	769.34631	10.17591	-644.42694	-708.49481	7.75345	496.05145	733.12213	6.80038	505.60727	-14.12536	1308.11719	-961.78790	
3660	36.590	-800.57684	8.86381	-638.81757	769.34528	10.16672	-644.40253	-708.46814	7.74863	496.07648	733.13849	6.83133	505.60068	-14.25837	1308.18677	-961.78918	
3661	36.600	-800.54205	9.18353	-638.65045	769.33911	10.26803	-644.41510	-708.54047	7.82148	496.11902	733.20337	6.86329	505.57114	-14.26774	1308.21277	-961.77631	
3662	36.610	-800.52820	9.15899	-638.68542	769.28986	10.36165	-644.47443	-708.55237	7.85359	496.18887	733.33173	6.92474	505.58868	-14.12000	1308.18530	-961.61877	
3663	36.620	-800.57208	8.85986	-638.77094	769.39819	10.01568	-644.32434	-708.54236	7.71148	496.14771	733.33386	6.92220	505.55515	-14.43906	1308.24182	-961.62946	
3664	36.630	-800.60382	8.55093	-638.91156	769.39374	9.81409	-644.35663	-708.59460	7.78065	496.04486	733.24835	6.89872	505.55975	-14.40025	1308.13501	-961.53857	
3665	36.640	-800.63361	8.69404	-638.87250	769.36566	10.06328	-644.41522	-708.73114	7.88265	495.84631	733.11279	6.80675	505.59070	-14.11223	1307.97876	-961.57526	
3666	36.650	-800.61255	8.90475	-638.73041	769.31525	10.05111	-644.37701	-708.52222	7.51764	496.14459	733.11407	6.83444	505.60419	-14.10316	1307.99988	-961.68701	
3667	36.660	-800.52625	9.16674	-638.66760	769.31775	10.11929	-644.37085	-708.48022	7.58262	496.16949	733.25299	6.91144	505.53882	-14.15667	1308.11328	-962.02118	
3668	36.670	-800.56934	9.05030	-638.72333	769.36542	10.10351	-644.39801	-708.43250	7.62946	496.20361	733.27002	6.86001	505.49017	-14.15921	1308.24890	-962.27679	
3669	36.680	-800.58905	8.80605	-638.82550	769.32361	10.23198	-644.41217	-708.42749	7.54185	496.20493	733.28693	6.90994	505.48431	-14.05514	1308.22742	-962.31293	
3670	36.690	-800.62842	8.71614	-638.87048	769.36505	10.07578	-644.38934	-708.49866	7.39295	496.21359	733.23053	6.86883	505.39603	-14.09727	1308.10315	-962.26263	
3671	36.700	-800.59509	8.87992	-638.78259	769.30402	10.02173	-644.37323	-708.69458	7.74957	496.19305	733.10846	6.73434	505.33743	-14.06955	1308.07349	-962.12854	
3672	36.710	-800.55554	9.07315	-638.69086	769.34406	10.06976	-644.37097	-708.67090	7.78427	496.29407	732.67517	6.32026	505.00082	-14.01409	1308.06787	-961.89551	
3673	36.720	-800.51147	9.07888	-638.70709	769.36151	10.12560	-644.41821	-708.59424	7.78085	496.38632	732.38385	5.97770	504.49423	-14.23999	1308.13110	-961.69037	
3674	36.730	-800.62317	8.93538	-638.73932	769.33813	10.23113	-644.39673	-708.60925	7.83848	496.35675	733.16205	6.79778	505.26691	-14.28000	1308.09766	-961.40155	
3675	36.740	-800.62122	8.80056	-638.83362	769.35138	10.11439	-644.41205	-708.66785	7.76890	496.32108	733.18372	6.79907	505.24756	-14.25204	1308.07959	-961.42438	
3676	36.750	-800.59442	8.81446	-638.86810	769.36285	10.04354	-644.38770	-708.69958	7.68337	496.28775	733.11786	6.72209	505.22659	-14.31922	1308.04480	-961.41278	
3677	36.760	-800.59277	8.95851	-638.75458	769.34741	10.00460	-644.37170	-708.62573	7.65017	496.31488	733.14307	6.71654	505.23450	-14.18475	1308.03113	-961.57587	
3678	36.770	-800.54504	8.98144	-638.74316	769.34882	10.06037	-644.34558	-708.61285	7.72691	496.35284	733.16553	6.74793	505.21542	-14.18003	1308.07715	-961.82300	
3679	36.780	-800.60321	8.96737	-638.69592	769.38623	10.11135	-644.37469	-708.57068	7.78170	496.33878	733.21661	6.78782	505.23050	-14.12478	1308.20703	-962.12299	
3680	36.790	-800.60455	8.97281	-638.78357	769.31909	10.14671	-644.40643	-708.61841	7.72788	496.38080	733.30414	6.85777	505.25571	-14.14129	1308.23828	-962.25800	
3681	36.800	-800.58374	8.93248	-638.81519	769.35852	10.14066	-644.40485	-708.65216	7.74745	496.30823	733.19751	6.77509	505.24054	-14.09534	1308.16284	-962.26581	
3682	36.810	-800.59210	8.79653	-638.80890	769.26239	10.07675	-644.39734	-708.70227	7.67492	496.23196	733.12415	6.71305	505.22818	-14.11300	1308.09583	-962.15668	
3683	36.820	-800.56024	8.85297	-638.81647	769.25751	10.04475	-644.36591	-708.59058	7.72958	496.25479	732.15485	5.76312	504.54745	-14.08259	1308.04700	-961.99146	
3684	36.830	-800.59283	8.94662	-638.75024	769.36890	10.05239	-644.34967	-708.57538	7.74965	496.24753	732.69257	6.26798	504.78088	-14.20155	1308.09375	-961.81854	
3685	36.840	-800.58899	8.95232	-638.74512	769.36176	10.13538	-644.37866	-708.59125	7.81008	496.19794	732.70410	6.35763	505.06027	-14.26975	1308.14502	-961.67194	
3686	36.850	-800.55701	8.94632	-638.76953	769.33038	10.14087	-644.43744	-708.62030	7.80979	496.20270	733.12531	6.73257	505.29764	-14.21369	1308.18970	-961.57214	
3687	36.860	-800.57916	8.83486	-638.79065	769.35669	10.09003	-644.40039	-708.57153	7.73410	496.21078	733.21075	6.82633	505.40323	-14.30224	1308.12927	-961.50702	
3688	36.870	-800.57434	8.81558	-638.78625	769.36212	10.03214	-644.39166	-708.61395	7.74121	496.16696	733.22363	6.86185	505.50226	-14.29141	1308.12793	-961.57288	
